<?xml version="1.0" encoding="utf-8"?>
<!-- Generator: Adobe Illustrator 16.0.0, SVG Export Plug-In . SVG Version: 6.00 Build 0)  -->
<!DOCTYPE svg PUBLIC "-//W3C//DTD SVG 1.1//EN" "http://www.w3.org/Graphics/SVG/1.1/DTD/svg11.dtd">
<svg version="1.1" id="Layer_1" xmlns="http://www.w3.org/2000/svg" xmlns:xlink="http://www.w3.org/1999/xlink" x="0px" y="0px"
	 width="23.879px" height="23.879px" viewBox="0 0 23.879 23.879" enable-background="new 0 0 23.879 23.879" xml:space="preserve">
<g>
	<g>
		<g>
			<g>
				<path fill="#98694C" d="M11.938,23.879H0V11.939C0,5.356,5.357,0,11.938,0c6.584,0,11.941,5.356,11.941,11.939
					C23.879,18.523,18.521,23.879,11.938,23.879z M0.756,23.122h11.182c6.168,0,11.186-5.016,11.186-11.183
					c0-6.166-5.018-11.183-11.186-11.183c-6.164,0-11.182,5.017-11.182,11.183V23.122z"/>
				<path fill="#98694C" d="M16.369,8.771h0.938v7.715h-0.67V9.847l-1.57,3.97h-0.648l-1.557-3.97v6.639h-0.633V8.771h0.93
					l1.621,4.122L16.369,8.771z M7.58,14.834c0,0.727-0.289,1.141-0.98,1.141c-0.695,0-0.982-0.414-0.982-1.141v-0.497H4.949v0.543
					c0,1.005,0.531,1.721,1.65,1.721s1.652-0.716,1.652-1.721V8.771H7.58V14.834z"/>
			</g>
		</g>
	</g>
</g>
</svg>
