<?xml version="1.0" encoding="utf-8"?>
<!-- Generator: Adobe Illustrator 16.0.0, SVG Export Plug-In . SVG Version: 6.00 Build 0)  -->
<!DOCTYPE svg PUBLIC "-//W3C//DTD SVG 1.1//EN" "http://www.w3.org/Graphics/SVG/1.1/DTD/svg11.dtd">
<svg version="1.1" id="Layer_1" xmlns="http://www.w3.org/2000/svg" xmlns:xlink="http://www.w3.org/1999/xlink" x="0px" y="0px"
	 width="240.883px" height="59.739px" viewBox="0 0 240.883 59.739" enable-background="new 0 0 240.883 59.739"
	 xml:space="preserve">
<g>
	<g>
		<g>
			<g>
				<g>
					<g>
						<g>
							<path fill="#3F3F3D" d="M52.732,7.671c-0.408,0.386-1,0.625-1.693,0.625c-0.672,0-1.262-0.193-1.615-0.523
								c-0.363-0.34-0.545-0.817-0.578-1.341h0.682c0.045,0.682,0.58,1.261,1.512,1.261c0.92,0,1.602-0.613,1.602-1.408
								c0-0.182-0.033-0.364-0.102-0.534c-0.285-0.671-0.988-0.967-1.818-1.33c-0.658-0.284-1.182-0.546-1.5-1.057
								c-0.17-0.272-0.229-0.602-0.229-0.954c0-0.478,0.195-0.977,0.547-1.33c0.385-0.386,0.943-0.602,1.59-0.602
								c0.684,0,1.238,0.228,1.58,0.579c0.309,0.308,0.455,0.728,0.479,1.137h-0.66c-0.092-0.613-0.58-1.137-1.398-1.137
								c-0.771,0-1.465,0.466-1.465,1.295c0,0.262,0.021,0.501,0.17,0.728c0.238,0.376,0.727,0.558,1.512,0.933
								c0.682,0.33,1.488,0.693,1.807,1.375c0.125,0.262,0.182,0.558,0.182,0.841C53.334,6.795,53.119,7.307,52.732,7.671z"/>
							<path fill="#3F3F3D" d="M57.17,5.205c0,1.374,0.316,2.499,1.76,2.499c0.83,0,1.17-0.216,1.365-0.613h0.715
								c-0.295,0.783-0.795,1.205-2.08,1.205c-1.898,0-2.477-1.318-2.477-3.091S57.486,2.5,58.828,2.5
								c1.363,0,2.385,0.909,2.385,2.705H57.17z M58.828,3.079c-0.955,0-1.523,0.546-1.648,1.558h3.297
								C60.35,3.603,59.783,3.079,58.828,3.079z"/>
							<path fill="#3F3F3D" d="M67.504,4.228v-0.08c0-0.647-0.389-1.068-1.137-1.068c-1.035,0-1.535,0.683-1.535,1.671v3.432h-0.658
								V2.613h0.705v0.705c0.102-0.147,0.215-0.283,0.34-0.387C65.584,2.613,65.957,2.5,66.492,2.5c1.033,0,1.705,0.535,1.705,1.522
								v0.205H67.504z"/>
							<path fill="#3F3F3D" d="M73.178,8.182h-0.67l-2.396-5.568h0.727l2.035,4.682l2.033-4.682h0.66L73.178,8.182z"/>
							<path fill="#3F3F3D" d="M79.699,8.182V3.205h-2.023V2.613h2.684v5.568H79.699z M79.279,1.068V0h1.182v1.068H79.279z"/>
							<path fill="#3F3F3D" d="M85.855,8.296c-1.455,0-2.375-0.967-2.375-2.897c0-1.91,0.967-2.898,2.396-2.898
								c0.99,0,1.717,0.295,1.865,1.262h-0.693c-0.104-0.433-0.5-0.671-1.172-0.671c-1.146,0-1.703,0.943-1.703,2.308
								c0,1.352,0.578,2.306,1.682,2.306c0.75,0,1.146-0.329,1.238-0.896h0.715C87.754,7.648,87.15,8.296,85.855,8.296z"/>
							<path fill="#3F3F3D" d="M91.299,5.205c0,1.374,0.318,2.499,1.762,2.499c0.828,0,1.17-0.216,1.363-0.613h0.717
								c-0.297,0.783-0.797,1.205-2.08,1.205c-1.898,0-2.479-1.318-2.479-3.091S91.617,2.5,92.959,2.5
								c1.363,0,2.385,0.909,2.385,2.705H91.299z M92.959,3.079c-0.955,0-1.523,0.546-1.648,1.558h3.295
								C94.48,3.603,93.912,3.079,92.959,3.079z"/>
							<path fill="#3F3F3D" d="M102.035,7.772c-0.457,0.443-1.184,0.523-1.773,0.523c-0.955,0-1.5-0.16-1.818-0.489
								c-0.273-0.272-0.363-0.546-0.42-0.932h0.691c0.16,0.592,0.479,0.852,1.648,0.852c0.99,0,1.434-0.476,1.434-1.079
								c0-0.136-0.07-0.34-0.16-0.466c-0.203-0.273-0.432-0.42-1.613-0.659c-1-0.193-1.33-0.454-1.49-0.647
								c-0.191-0.238-0.283-0.499-0.283-0.841c0-0.42,0.17-0.783,0.432-1.045C99,2.659,99.512,2.5,100.33,2.5
								c0.592,0,1.092,0.113,1.408,0.363c0.297,0.239,0.455,0.546,0.512,0.967h-0.682c-0.092-0.455-0.455-0.785-1.34-0.785
								c-0.842,0-1.297,0.364-1.297,0.989c0,0.193,0.057,0.329,0.148,0.432c0.158,0.182,0.408,0.352,1.398,0.545
								c0.988,0.206,1.352,0.342,1.715,0.751c0.148,0.17,0.297,0.477,0.297,0.886C102.49,7.103,102.318,7.5,102.035,7.772z"/>
							<path fill="#3F3F3D" d="M112.297,8.182c-1.467,0-2.115-0.727-2.115-2V0h0.66v6.068c0,1.137,0.385,1.522,1.543,1.522h0.715
								v0.591H112.297z"/>
							<path fill="#3F3F3D" d="M116.248,8.182V3.205h-2.021V2.613h2.682v5.568H116.248z M115.828,1.068V0h1.184v1.068H115.828z"/>
							<path fill="#3F3F3D" d="M124.436,8.182V4.808c0-0.569-0.148-0.989-0.408-1.251c-0.363-0.363-0.807-0.466-1.283-0.466
								c-0.99,0-1.83,0.739-1.83,1.864v3.227h-0.66V2.613h0.625V3.5c0.41-0.545,0.898-1,1.965-1c0.592,0,1.16,0.125,1.684,0.579
								c0.307,0.273,0.566,0.831,0.566,1.421v3.682H124.436z"/>
							<path fill="#3F3F3D" d="M130.359,10.08c-1.602,0-2.021-0.682-2.078-1.272h0.703c0.057,0.386,0.4,0.703,1.375,0.703
								c1.318,0,1.83-0.556,1.83-1.488V7.125c-0.467,0.567-0.932,0.853-1.807,0.853c-0.398,0-1.113-0.079-1.646-0.637
								c-0.615-0.636-0.693-1.467-0.693-2.102c0-0.638,0.078-1.467,0.693-2.103c0.533-0.558,1.248-0.637,1.646-0.637
								c0.863,0,1.375,0.273,1.842,0.841V2.613h0.625v5.501C132.85,9.433,132.078,10.08,130.359,10.08z M130.463,3.091
								c-1.139,0-1.727,0.863-1.727,2.148c0,1.284,0.588,2.147,1.727,2.147c1.135,0,1.727-0.863,1.727-2.147
								C132.189,3.954,131.598,3.091,130.463,3.091z"/>
							<path fill="#3F3F3D" d="M140.328,8.182V7.295c-0.41,0.546-0.898,1.001-1.965,1.001c-0.592,0-1.16-0.126-1.682-0.58
								c-0.309-0.273-0.568-0.829-0.568-1.42V2.613h0.658v3.375c0,0.569,0.148,0.989,0.408,1.251
								c0.365,0.363,0.809,0.465,1.283,0.465c0.99,0,1.83-0.738,1.83-1.863V2.613h0.66v5.568H140.328z"/>
							<path fill="#3F3F3D" d="M145.52,8.182V3.205h-2.021V2.613h2.682v5.568H145.52z M145.102,1.068V0h1.182v1.068H145.102z"/>
							<path fill="#3F3F3D" d="M153.154,7.772c-0.455,0.443-1.184,0.523-1.773,0.523c-0.955,0-1.5-0.16-1.818-0.489
								c-0.273-0.272-0.365-0.546-0.42-0.932h0.691c0.16,0.592,0.479,0.852,1.65,0.852c0.986,0,1.43-0.476,1.43-1.079
								c0-0.136-0.068-0.34-0.16-0.466c-0.203-0.273-0.432-0.42-1.613-0.659c-1-0.193-1.328-0.454-1.486-0.647
								c-0.193-0.238-0.285-0.499-0.285-0.841c0-0.42,0.17-0.783,0.432-1.045c0.316-0.33,0.828-0.489,1.646-0.489
								c0.592,0,1.092,0.113,1.41,0.363c0.297,0.239,0.457,0.546,0.512,0.967h-0.682c-0.092-0.455-0.455-0.785-1.34-0.785
								c-0.842,0-1.299,0.364-1.299,0.989c0,0.193,0.061,0.329,0.148,0.432c0.16,0.182,0.412,0.352,1.398,0.545
								c0.99,0.206,1.354,0.342,1.719,0.751c0.146,0.17,0.295,0.477,0.295,0.886C153.609,7.103,153.438,7.5,153.154,7.772z"/>
							<path fill="#3F3F3D" d="M158.848,8.296c-0.818,0-1.613-0.25-1.613-1.58V3.205h-1.41V2.613h1.41V1.125l0.658-0.193v1.682
								h2.262v0.592h-2.262v3.42c0,0.704,0.297,1.079,0.967,1.079c0.488,0,0.92-0.17,1.295-0.409v0.649
								C159.744,8.182,159.381,8.296,158.848,8.296z"/>
							<path fill="#3F3F3D" d="M164.434,8.182V3.205h-2.025V2.613h2.684v5.568H164.434z M164.01,1.068V0h1.184v1.068H164.01z"/>
							<path fill="#3F3F3D" d="M172.537,10.08V7.421c-0.453,0.567-1.033,0.875-1.908,0.875c-0.547,0-1.205-0.092-1.773-0.671
								c-0.635-0.67-0.715-1.557-0.715-2.227c0-0.671,0.08-1.558,0.715-2.228c0.568-0.579,1.227-0.671,1.773-0.671
								c0.885,0,1.465,0.283,1.943,0.853V2.613h0.623v7.467H172.537z M170.686,3.091c-1.227,0-1.854,0.932-1.854,2.308
								c0,1.375,0.627,2.306,1.854,2.306s1.852-0.931,1.852-2.306C172.537,4.022,171.912,3.091,170.686,3.091z"/>
							<path fill="#3F3F3D" d="M180.607,8.182V7.295c-0.408,0.546-0.896,1.001-1.967,1.001c-0.59,0-1.158-0.126-1.682-0.58
								c-0.305-0.273-0.568-0.829-0.568-1.42V2.613h0.66v3.375c0,0.569,0.148,0.989,0.408,1.251
								c0.363,0.363,0.807,0.465,1.285,0.465c0.988,0,1.83-0.738,1.83-1.863V2.613h0.66v5.568H180.607z"/>
							<path fill="#3F3F3D" d="M185.115,5.205c0,1.374,0.316,2.499,1.76,2.499c0.83,0,1.17-0.216,1.365-0.613h0.717
								c-0.297,0.783-0.797,1.205-2.082,1.205c-1.898,0-2.479-1.318-2.479-3.091s1.035-2.705,2.379-2.705
								c1.361,0,2.385,0.909,2.385,2.705H185.115z M186.775,3.079c-0.955,0-1.523,0.546-1.65,1.558h3.297
								C188.297,3.603,187.729,3.079,186.775,3.079z"/>
							<path fill="#3F3F3D" d="M195.852,7.772c-0.457,0.443-1.184,0.523-1.775,0.523c-0.955,0-1.498-0.16-1.818-0.489
								c-0.271-0.272-0.363-0.546-0.42-0.932h0.693c0.158,0.592,0.479,0.852,1.648,0.852c0.988,0,1.432-0.476,1.432-1.079
								c0-0.136-0.068-0.34-0.16-0.466c-0.203-0.273-0.432-0.42-1.613-0.659c-1-0.193-1.328-0.454-1.488-0.647
								c-0.191-0.238-0.283-0.499-0.283-0.841c0-0.42,0.168-0.783,0.432-1.045c0.316-0.33,0.828-0.489,1.646-0.489
								c0.592,0,1.092,0.113,1.41,0.363c0.297,0.239,0.455,0.546,0.512,0.967h-0.684c-0.092-0.455-0.455-0.785-1.338-0.785
								c-0.844,0-1.299,0.364-1.299,0.989c0,0.193,0.059,0.329,0.148,0.432c0.16,0.182,0.41,0.352,1.398,0.545
								c0.99,0.206,1.354,0.342,1.717,0.751c0.148,0.17,0.297,0.477,0.297,0.886C196.307,7.103,196.135,7.5,195.852,7.772z"/>
						</g>
					</g>
				</g>
			</g>
		</g>
	</g>
	<g>
		<g>
			<g>
				<path fill="#98694C" d="M8.701,34.365c0-0.654,0-7.886-0.123-9.561c-0.244-0.899-0.408-1.39-1.797-1.39H5.393
					c-0.164,0-0.287-0.042-0.287-0.204v-1.186c0-0.204,0.041-0.285,0.287-0.285c0.449,0,1.959,0.123,6.455,0.123
					c4.004,0,5.436-0.123,6.047-0.123c0.246,0,0.326,0.081,0.326,0.326v1.021c0,0.246-0.08,0.327-0.326,0.327h-1.432
					c-1.102,0-1.469,0.326-1.51,1.103c-0.041,0.655-0.123,5.885-0.123,10.828v1.88c0,5.188-0.164,9.193-0.164,10.132
					c0,2.166-0.285,3.923-1.635,6.212c-1.838,3.104-5.23,6.17-9.969,6.17C1.959,59.739,0,59.003,0,56.796
					c0-1.388,1.02-2.615,2.449-2.615c2.043,0,2.943,1.677,3.678,3.31c0.857,0,1.758-0.979,2.166-2.45
					c0.857-2.983,0.408-14.833,0.408-17.814V34.365z"/>
				<path fill="#98694C" d="M22.592,48.379c-1.551-1.715-2.166-3.88-2.166-6.455c0-1.839,1.021-4.862,3.514-6.782
					c2.086-1.635,4.17-2.084,6.09-2.084c2.818,0,4.738,0.858,6.578,2.575c2.002,1.797,2.818,4.003,2.818,6.495
					c0,2.371-1.021,4.657-2.615,6.374c-1.961,2.043-4.33,2.86-7.107,2.86C26.719,51.362,24.676,50.75,22.592,48.379z M33.215,41.843
					c0-4.739-1.633-7.069-3.432-7.069c-1.021,0-1.674,0.287-2.207,1.103c-0.814,1.268-1.348,3.024-1.348,6.334
					c0,2.37,0.205,3.922,1.021,5.68c0.531,1.103,1.186,1.756,2.697,1.756C32.195,49.646,33.215,46.336,33.215,41.843z"/>
				<path fill="#98694C" d="M58.799,47.031c-0.736,1.512-3.393,4.331-7.232,4.331c-2.615,0-4.779-0.449-6.129-1.921
					c-2.082-2.246-2.777-3.84-2.818-7.027c0-1.144,0-3.31,1.838-6.006c1.471-2.165,3.963-3.351,7.109-3.351
					c6.619,0,6.988,6.334,6.988,6.987c0,0.53-0.369,0.572-1.27,0.572H47.93v1.103c0,4.25,2.412,6.333,5.395,6.333
					c2.002,0,3.637-0.939,4.453-2.247c0.082-0.204,0.244-0.246,0.408-0.123l0.693,0.368C59.045,46.132,59.166,46.336,58.799,47.031z
					 M47.604,29.83c-1.062,0-2.615-0.49-2.615-2.492c0-0.777,0.531-2.329,2.615-2.329c1.266,0,2.369,0.857,2.369,2.533
					C49.973,28.972,48.951,29.83,47.604,29.83z M51.199,34.692c-1.92,0-2.941,1.512-3.229,4.371h3.922
					c0.9,0,1.307-0.204,1.307-0.816C53.199,36.448,52.465,34.692,51.199,34.692z M55.203,29.83c-1.062,0-2.656-0.49-2.656-2.492
					c0-0.777,0.531-2.329,2.656-2.329c1.225,0,2.289,0.857,2.289,2.533C57.492,28.972,56.471,29.83,55.203,29.83z"/>
				<path fill="#98694C" d="M68.961,42.618c0,1.635,0,4.29,0.123,5.476c0.039,0.694,0.164,1.267,1.021,1.267h1.389
					c0.367,0,0.449,0.123,0.449,0.368v0.776c0,0.245-0.082,0.408-0.244,0.408c-0.287,0-2.086-0.123-5.312-0.123
					c-3.432,0-5.066,0.123-5.436,0.123c-0.203,0-0.285-0.163-0.285-0.491v-0.693c0-0.287,0.082-0.368,0.531-0.368h1.227
					c0.449,0,1.104-0.286,1.104-1.758V34.611c0-2.902,0-6.212-0.084-7.273c-0.078-1.39-0.938-1.961-2.246-2.371l-0.734-0.244
					c-0.285-0.122-0.326-0.245-0.326-0.45V23.66c0-0.122,0.08-0.287,0.365-0.326c1.84-0.368,6.09-1.758,7.273-2.37
					c0.449-0.205,0.695-0.286,0.898-0.286c0.246,0,0.41,0.203,0.369,0.735c-0.041,2.247-0.082,10.745-0.082,13.564V42.618z"/>
				<path fill="#98694C" d="M88.988,45.438c0.123,1.512,0.775,3.801,2.123,3.801h1.594c0.246,0,0.285,0.122,0.285,0.285v1.104
					c0,0.163-0.039,0.286-0.365,0.286c-0.451,0-1.553-0.123-4.535-0.123c-3.475,0-4.904,0.123-5.271,0.123
					c-0.328,0-0.367-0.04-0.367-0.368v-1.062c0-0.123,0.039-0.245,0.246-0.245h1.672c1.309,0,1.799-1.881,1.963-3.188
					c0.367-2.901,0.736-12.544,0.736-13.278l-0.043-6.252c0-1.88-0.408-3.105-2.246-3.105h-1.348c-0.246,0-0.285-0.123-0.285-0.285
					v-1.145c0-0.122,0.039-0.245,0.285-0.245c0.408,0,1.512,0.123,6.332,0.123c1.92,0,3.188-0.123,3.676-0.123
					c0.41,0,0.736,0.04,0.982,0.694c2.615,6.946,5.557,13.729,7.844,19.857c0.451-0.776,3.557-8.376,3.801-8.948
					c0.164-0.409,4.248-10.174,4.453-10.991c0.123-0.45,0.652-0.489,1.881-0.489c6.373,0,7.764-0.123,8.213-0.123
					c0.203,0,0.244,0.123,0.244,0.368v0.938c0,0.245-0.041,0.368-0.328,0.368h-1.797c-0.939,0-1.061,0.736-1.061,1.594
					c0,0.613,0.041,10.663,0.078,11.522c0,0.815,0.125,9.765,0.125,10.5c0,1.553,0.367,2.207,0.939,2.207h1.961
					c0.246,0,0.287,0.122,0.287,0.285v1.021c0,0.245-0.041,0.368-0.371,0.368c-0.486,0-1.223-0.123-6.045-0.123
					c-4.168,0-5.76,0.123-6.291,0.123c-0.287,0-0.328-0.123-0.328-0.368v-1.021c0-0.204,0.041-0.285,0.328-0.285h2.287
					c0.695,0,1.062-0.246,1.145-1.39c0.039-0.491,0.164-7.927,0.164-10.787V24.601h-0.246c-0.408,0.693-4.984,11.808-5.721,13.482
					c-0.857,1.879-4.494,10.951-4.697,11.317c-0.205,0.328-0.492,0.94-0.982,0.94c-0.285,0-0.531-0.285-0.734-0.735
					c-0.123-0.286-5.516-12.952-5.803-13.688c-0.736-1.879-4.492-11.032-4.822-11.523c-0.162,0.572-0.244,10.909-0.244,11.4
					S88.742,41.843,88.988,45.438z"/>
				<path fill="#98694C" d="M133.627,37.757c0-0.817-0.08-1.758-0.611-2.247c-0.408-0.368-1.062-0.491-1.719-0.491
					c-0.732,0-1.428,0.164-2.164,0.653c-0.611,0.41-0.121,1.104-0.121,2.411c0,1.39-1.023,2.33-2.658,2.33
					c-0.939,0-1.756-0.572-1.756-1.473c0-0.898,0.287-2.124,1.145-2.858c1.715-1.554,4.535-3.024,7.844-3.024
					c2.615,0,3.311,0.409,4.168,1.186c0.898,0.817,1.145,2.001,1.145,3.472l0.082,8.132c0.041,2.124,0.162,2.777,0.941,2.777
					c0.57,0,1.02-0.449,1.182-0.734c0.166-0.245,0.287-0.287,0.41-0.204l0.572,0.327c0.162,0.081,0.285,0.204,0.123,0.571
					c-0.369,0.857-1.594,2.778-4.127,2.778c-1.594,0-3.107-0.572-3.881-2.492h-0.205c-1.023,0.939-1.881,1.512-3.516,2.124
					c-0.814,0.286-1.756,0.368-2.941,0.368c-1.43,0-2.695-1.553-2.695-3.76c0-1.797,0.857-3.676,3.512-4.984
					c3.188-1.512,4.209-1.961,5.271-2.696V37.757z M133.668,41.556c-2.002,1.144-3.678,1.758-3.678,4.576
					c0,1.881,0.857,2.656,1.76,2.696c1.102-0.081,1.918-1.103,1.918-1.471V41.556z"/>
				<path fill="#98694C" d="M152.275,47.686c0,1.266,0.408,1.675,1.27,1.675h1.672c0.246,0,0.287,0.123,0.287,0.368v0.816
					c0,0.245-0.041,0.368-0.203,0.368c-0.246,0-2.127-0.123-5.805-0.123c-3.145,0-4.859,0.123-5.105,0.123
					c-0.162,0-0.244-0.082-0.244-0.408v-0.776c0-0.287,0.082-0.368,0.449-0.368h1.186c0.611,0,0.979-0.245,1.061-0.981
					c0.082-1.143,0.082-2.573,0.082-4.616v-3.392c0-1.757-0.406-2.492-1.635-3.187l-0.693-0.408
					c-0.246-0.123-0.328-0.205-0.328-0.368V36.04c0-0.164,0.082-0.245,0.328-0.326l5.721-2.492c0.244-0.083,0.408-0.164,0.652-0.164
					c0.287,0,0.449,0.245,0.49,0.49l0.367,3.188h0.287c1.266-2.696,3.062-3.924,4.863-3.924c1.225,0,2.164,0.94,2.164,2.371
					c0,1.104-1.266,2.328-2.613,2.328c-0.574,0-1.105-0.122-1.473-0.367c-0.328-0.204-0.695-0.286-1.023-0.286
					c-0.408,0-0.814,0.204-1.061,0.735c-0.531,1.104-0.695,1.88-0.695,2.411V47.686z"/>
				<path fill="#98694C" d="M169.115,44.825c0,3.35,1.266,4.086,2.248,4.086c0.857,0,1.469-0.123,2.121-0.491
					c0.125-0.081,0.246-0.081,0.371,0.164l0.283,0.612c0.125,0.204,0,0.409-0.162,0.532c-0.695,0.489-2.533,1.634-5.721,1.634
					c-2.777,0-4.535-1.921-4.535-3.799c0-1.432,0.082-4.535,0.082-6.089l0.041-5.393h-2.246c-0.369,0-0.654-0.164-0.654-0.572
					c0-0.409,0.244-0.695,0.9-1.021c1.348-0.613,4.779-3.678,6.291-5.395c0.287-0.326,0.57-0.407,0.773-0.407
					c0.369,0,0.533,0.285,0.533,0.611l-0.164,4.331h5.189c0.246,0,0.367,0.204,0.287,0.368l-0.408,1.757
					c-0.041,0.164-0.125,0.328-0.369,0.328h-4.781c-0.08,1.675-0.08,3.636-0.08,5.515V44.825z"/>
				<path fill="#98694C" d="M187.02,50.913c-0.328,0-2.209-0.123-5.762-0.123c-2.371,0-3.965,0.123-4.414,0.123
					c-0.203,0-0.324-0.082-0.324-0.408v-0.817c0-0.246,0.121-0.327,0.406-0.327h1.512c0.449,0,0.736-0.164,0.777-0.817
					c0.082-1.226,0.082-2.492,0.082-3.637l-0.082-5.721c0-1.144-0.246-1.96-1.961-2.573c-0.449-0.164-0.49-0.326-0.49-0.572v-0.449
					c0-0.122,0.08-0.204,0.449-0.326l6.088-1.962c0.449-0.164,0.816-0.245,1.104-0.245c0.328,0,0.449,0.204,0.406,0.49
					c-0.078,0.695-0.078,3.269-0.078,6.865v4.371c0,1.594,0,3.064,0.037,3.514c0.084,0.776,0.287,1.062,0.736,1.062h1.473
					c0.324,0,0.408,0.123,0.408,0.368v0.776C187.387,50.79,187.303,50.913,187.02,50.913z M181.42,29.953
					c-1.715,0.04-2.982-1.309-2.982-2.943c0-1.348,1.389-2.696,3.188-2.696c2.004,0,3.023,1.39,3.023,2.574
					C184.648,28.237,183.709,29.87,181.42,29.953z"/>
				<path fill="#98694C" d="M197.455,35.304h0.328c0.451-0.53,1.186-1.061,1.961-1.471c0.898-0.489,1.797-0.775,3.146-0.775
					c1.594,0,3.148,0.164,4.209,1.144c1.715,1.594,1.84,2.615,1.84,4.658v4.331c0,1.39-0.084,3.31-0.164,4.739
					c-0.041,1.227,0.613,1.431,0.979,1.431h1.104c0.369,0,0.449,0.123,0.449,0.368v0.734c0,0.287-0.08,0.45-0.324,0.45
					c-0.287,0-1.553-0.123-4.822-0.123c-2.697,0-4.004,0.123-4.291,0.123c-0.244,0-0.328-0.123-0.328-0.45v-0.734
					c0-0.287,0.125-0.368,0.533-0.368h0.449c0.287,0,0.652-0.204,0.736-0.94c0.162-1.062,0.244-2.369,0.244-4.249V39.8
					c0-1.553-0.123-2.615-0.98-3.392c-0.736-0.654-1.307-0.736-2.002-0.736c-0.736,0-1.268,0.204-2.084,0.817
					c-0.49,0.368-0.816,1.472-0.816,3.146l-0.082,8.377c0,0.734,0.287,1.348,0.652,1.348h0.533c0.324,0,0.408,0.123,0.408,0.408
					v0.776c0,0.245-0.084,0.368-0.287,0.368c-0.283,0-1.391-0.123-4.086-0.123c-2.9,0-4.207,0.123-4.453,0.123
					c-0.203,0-0.285-0.123-0.285-0.368v-0.816c0-0.245,0.082-0.368,0.406-0.368h0.615c0.449,0,1.145-0.122,1.145-0.817v-9.07
					c0-1.226-0.695-1.92-1.635-2.369l-0.369-0.164c-0.246-0.123-0.285-0.286-0.285-0.45v-0.367c0-0.204,0.164-0.327,0.367-0.408
					l5.23-2.37c0.328-0.122,0.611-0.286,0.939-0.286c0.246,0,0.492,0.204,0.57,0.49L197.455,35.304z"/>
			</g>
			<g>
				<path fill="#98694C" d="M228.941,38.762h-11.938V26.822c0-6.583,5.357-11.939,11.938-11.939c6.584,0,11.941,5.356,11.941,11.939
					C240.883,33.406,235.525,38.762,228.941,38.762z M217.76,38.005h11.182c6.168,0,11.186-5.016,11.186-11.183
					c0-6.166-5.018-11.183-11.186-11.183c-6.164,0-11.182,5.017-11.182,11.183V38.005z"/>
				<path fill="#98694C" d="M233.373,23.653h0.938v7.715h-0.67v-6.639l-1.57,3.97h-0.648l-1.557-3.97v6.639h-0.633v-7.715h0.93
					l1.621,4.122L233.373,23.653z M224.584,29.717c0,0.727-0.289,1.141-0.98,1.141c-0.695,0-0.982-0.414-0.982-1.141V29.22h-0.668
					v0.543c0,1.005,0.531,1.721,1.65,1.721s1.652-0.716,1.652-1.721v-6.109h-0.672V29.717z"/>
			</g>
		</g>
	</g>
</g>
</svg>
